<?xml version="1.0" encoding="utf-8"?>
<!-- Generator: Adobe Illustrator 24.3.0, SVG Export Plug-In . SVG Version: 6.00 Build 0)  -->
<svg version="1.1" id="Laag_1" xmlns="http://www.w3.org/2000/svg" xmlns:xlink="http://www.w3.org/1999/xlink" x="0px" y="0px"
	 viewBox="0 0 655.2 142.9" style="enable-background:new 0 0 655.2 142.9;" xml:space="preserve">
<style type="text/css">
	.st0{fill:none;}
	.st1{fill:url(#SVGID_1_);}
	.st2{fill:url(#SVGID_2_);}
	.st3{fill:url(#SVGID_3_);}
	.st4{fill:url(#SVGID_4_);}
	.st5{fill:url(#SVGID_5_);}
	.st6{fill:url(#SVGID_6_);}
	.st7{fill:url(#SVGID_7_);}
	.st8{fill:url(#SVGID_8_);}
	.st9{fill:url(#SVGID_9_);}
	.st10{fill:url(#SVGID_10_);}
	.st11{fill:url(#SVGID_11_);}
	.st12{fill:url(#SVGID_12_);}
</style>
<g>
	<path class="st0" d="M53.5,52.9c-3,4.3-14.3,21-14.3,27.9c0,7.9,6.4,14.3,14.3,14.3c7.9,0,14.3-6.4,14.3-14.3
		C67.8,73.9,56.5,57.2,53.5,52.9z M62.9,88.3c-1.9,2.5-5,3.9-9.2,4.2l-0.1,0c-0.7,0-1.2-0.5-1.3-1.2c0-0.3,0.1-0.7,0.3-0.9
		c0.2-0.3,0.5-0.4,0.9-0.4c3.4-0.2,5.9-1.3,7.3-3.2c2-2.6,1.4-5.9,1.4-6c-0.1-0.7,0.3-1.4,1-1.5c0.7-0.1,1.4,0.3,1.5,1
		C64.8,80.5,65.6,84.8,62.9,88.3z"/>
	<linearGradient id="SVGID_1_" gradientUnits="userSpaceOnUse" x1="36.6594" y1="73.0702" x2="70.4285" y2="73.0702">
		<stop  offset="0" style="stop-color:#1C95A6"/>
		<stop  offset="7.079148e-02" style="stop-color:#27989B"/>
		<stop  offset="0.354" style="stop-color:#4DA273"/>
		<stop  offset="0.613" style="stop-color:#69AA56"/>
		<stop  offset="0.8368" style="stop-color:#7AAE44"/>
		<stop  offset="1" style="stop-color:#80B03E"/>
	</linearGradient>
	<path class="st1" d="M54.6,49.9l-1.1-1.5l-1.1,1.5c-0.6,0.9-15.8,22-15.8,31c0,9.3,7.6,16.9,16.9,16.9s16.9-7.6,16.9-16.9
		C70.4,71.9,55.2,50.8,54.6,49.9z M53.5,95.1c-7.9,0-14.3-6.4-14.3-14.3c0-6.9,11.3-23.6,14.3-27.9c3,4.3,14.3,21,14.3,27.9
		C67.8,88.7,61.4,95.1,53.5,95.1z"/>
	<linearGradient id="SVGID_2_" gradientUnits="userSpaceOnUse" x1="52.2432" y1="85.8689" x2="64.8671" y2="85.8689">
		<stop  offset="0" style="stop-color:#1C95A6"/>
		<stop  offset="7.079148e-02" style="stop-color:#27989B"/>
		<stop  offset="0.354" style="stop-color:#4DA273"/>
		<stop  offset="0.613" style="stop-color:#69AA56"/>
		<stop  offset="0.8368" style="stop-color:#7AAE44"/>
		<stop  offset="1" style="stop-color:#80B03E"/>
	</linearGradient>
	<path class="st2" d="M64.7,80.3c-0.1-0.7-0.8-1.2-1.5-1c-0.7,0.1-1.2,0.8-1,1.5c0,0.1,0.6,3.5-1.4,6c-1.4,1.9-3.9,2.9-7.3,3.2
		c-0.3,0-0.7,0.2-0.9,0.4c-0.2,0.3-0.3,0.6-0.3,0.9c0,0.7,0.6,1.2,1.3,1.2l0.1,0c4.2-0.3,7.3-1.7,9.2-4.2
		C65.6,84.8,64.8,80.5,64.7,80.3z"/>
</g>
<g id="XMLID_85_">
	
		<ellipse transform="matrix(0.9996 -2.937342e-02 2.937342e-02 0.9996 -1.7459 4.581)" class="st0" cx="155.1" cy="61.7" rx="5.8" ry="5.8"/>
</g>
<g id="XMLID_118_">
	<path class="st0" d="M162.5,83.8c-3.4,4.9-6.4,8.6-6.4,8.7c-0.2,0.3-0.6,0.5-1,0.5s-0.8-0.2-1-0.5c0,0-3-3.8-6.4-8.7h-8.4
		l-6.4,14.2h44.3l-6.3-14.2H162.5z"/>
</g>
<g id="XMLID_121_">
	<path class="st0" d="M155.1,89.6c1.5-1.9,4.4-5.8,7.3-10.2c5.3-8.1,8.1-14.2,8.1-17.7c0-8.5-6.9-15.4-15.4-15.4
		c-8.5,0-15.4,6.9-15.4,15.4c0,3.5,2.8,9.7,8.1,17.7C150.7,83.8,153.6,87.7,155.1,89.6z M155.1,53.3c4.6,0,8.4,3.8,8.4,8.4
		c0,4.6-3.8,8.4-8.4,8.4s-8.4-3.8-8.4-8.4C146.7,57.1,150.4,53.3,155.1,53.3z"/>
</g>
<g id="XMLID_165_">
	<linearGradient id="SVGID_3_" gradientUnits="userSpaceOnUse" x1="146.6509" y1="61.7141" x2="163.4525" y2="61.7141">
		<stop  offset="0" style="stop-color:#1C95A6"/>
		<stop  offset="7.079148e-02" style="stop-color:#27989B"/>
		<stop  offset="0.354" style="stop-color:#4DA273"/>
		<stop  offset="0.613" style="stop-color:#69AA56"/>
		<stop  offset="0.8368" style="stop-color:#7AAE44"/>
		<stop  offset="1" style="stop-color:#80B03E"/>
	</linearGradient>
	<path class="st3" d="M155.1,70.1c4.6,0,8.4-3.8,8.4-8.4c0-4.6-3.8-8.4-8.4-8.4s-8.4,3.8-8.4,8.4C146.7,66.3,150.4,70.1,155.1,70.1z
		 M155.1,55.9c3.2,0,5.8,2.6,5.8,5.8c0,3.2-2.6,5.8-5.8,5.8s-5.8-2.6-5.8-5.8C149.2,58.5,151.8,55.9,155.1,55.9z"/>
</g>
<g id="XMLID_168_">
	<linearGradient id="SVGID_4_" gradientUnits="userSpaceOnUse" x1="129.5601" y1="72.1749" x2="180.4212" y2="72.1749">
		<stop  offset="0" style="stop-color:#1C95A6"/>
		<stop  offset="7.079148e-02" style="stop-color:#27989B"/>
		<stop  offset="0.354" style="stop-color:#4DA273"/>
		<stop  offset="0.613" style="stop-color:#69AA56"/>
		<stop  offset="0.8368" style="stop-color:#7AAE44"/>
		<stop  offset="1" style="stop-color:#80B03E"/>
	</linearGradient>
	<path class="st4" d="M172.9,82c-0.2-0.5-0.7-0.8-1.2-0.8h-7.5c0.1-0.1,0.2-0.2,0.2-0.4c5.7-8.6,8.6-15.1,8.6-19.2
		c0-9.9-8.1-18-18-18c-9.9,0-18,8.1-18,18c0,4.1,2.9,10.5,8.6,19.2c0.1,0.1,0.2,0.2,0.2,0.4h-7.5c-0.5,0-1,0.3-1.2,0.8l-7.5,16.8
		c-0.2,0.4-0.1,0.9,0.1,1.2c0.2,0.4,0.6,0.6,1.1,0.6h48.3c0.4,0,0.8-0.2,1.1-0.6c0.2-0.4,0.3-0.8,0.1-1.2L172.9,82z M139.6,61.7
		c0-8.5,6.9-15.4,15.4-15.4c8.5,0,15.4,6.9,15.4,15.4c0,3.5-2.8,9.6-8.1,17.7c-2.9,4.4-5.8,8.3-7.3,10.2c-1.5-1.9-4.4-5.8-7.3-10.2
		C142.4,71.4,139.6,65.2,139.6,61.7z M132.8,98.1l6.4-14.2h8.4c3.4,4.9,6.4,8.6,6.4,8.7c0.2,0.3,0.6,0.5,1,0.5s0.8-0.2,1-0.5
		c0,0,3-3.8,6.4-8.7h8.4l6.3,14.2H132.8z"/>
</g>
<linearGradient id="SVGID_5_" gradientUnits="userSpaceOnUse" x1="515.5193" y1="72.7538" x2="585.2766" y2="72.7538">
	<stop  offset="0" style="stop-color:#1C95A6"/>
	<stop  offset="7.079148e-02" style="stop-color:#27989B"/>
	<stop  offset="0.354" style="stop-color:#4DA273"/>
	<stop  offset="0.613" style="stop-color:#69AA56"/>
	<stop  offset="0.8368" style="stop-color:#7AAE44"/>
	<stop  offset="1" style="stop-color:#80B03E"/>
</linearGradient>
<path class="st5" d="M584.7,63.6l-33.6-20.9c-0.1,0-0.1,0-0.2-0.1c-0.1,0-0.2-0.1-0.3-0.1c-0.1,0-0.2,0-0.2,0c-0.1,0-0.2,0-0.2,0
	c-0.1,0-0.2,0.1-0.3,0.1c-0.1,0-0.1,0-0.2,0.1l-33.6,20.9c-0.6,0.4-0.8,1.2-0.4,1.8c0.2,0.4,0.7,0.6,1.1,0.6c0.2,0,0.5-0.1,0.7-0.2
	l3.3-2.1v37.8c0,0.7,0.6,1.3,1.3,1.3h13.4h0h43.2c0.7,0,1.3-0.6,1.3-1.3V63.8l3.3,2.1c0.2,0.1,0.5,0.2,0.7,0.2
	c0.4,0,0.9-0.2,1.1-0.6C585.5,64.8,585.3,64,584.7,63.6z M550.9,95.2c1.8,0.1,3.3,0.8,3.7,1.7c0.2,0.4,0.5,0.6,1,0.7
	c0.4,0.1,0.8-0.1,1.1-0.4c0.5-0.5,2.6-0.7,4.8,0.3c0.8,0.4,2.3,1.3,2.8,2.7h-27.3c0.4-1,1.2-1.6,1.8-2c1.7-1.1,4-1.4,5.4-0.8
	c0.6,0.3,1.3,0.1,1.6-0.4C547,95.5,549.2,95.1,550.9,95.2z M577.4,62.2v38.2H567c-0.3-2.1-1.9-4-4.4-5.1c-2-0.9-4.7-1.3-6.5-0.6
	c-0.7-0.7-1.6-1.2-2.7-1.6c0.8-2.1,0.9-5.5-0.4-8.4c-2.2-5-1.5-8.1-1.1-9.3c3.3-0.2,5.9-1.3,7.6-3.5c3.4-4.3,1.9-10.9,1.8-11.2
	c-0.2-0.7-0.8-1.1-1.5-1c-0.1,0-11.6,1.9-10.1,14.1c-0.2,0.5-0.6,1.5-0.7,2.8c-4.9-5.4-12.2-3.2-12.3-3.2c-0.6,0.2-1,0.9-0.9,1.5
	c0.1,0.3,1.6,6.9,6.5,9.3c1.2,0.6,2.4,0.9,3.8,0.9c1.3,0,2.6-0.3,4-0.8c0.2,0.5,0.3,0.9,0.5,1.4c1.3,3,0.7,6.1,0.1,6.9
	c-2.6-0.1-4.9,0.7-6.4,2.2c-2.1-0.5-4.8,0-6.9,1.3c-1.7,1.1-2.8,2.5-3.1,4.2h-10.9V62.2c0,0,0,0,0,0l27-16.8L577.4,62.2
	C577.4,62.2,577.4,62.2,577.4,62.2z M559,62.5c0.2,1.9,0.3,5.3-1.6,7.7c-1.1,1.4-2.9,2.2-5.2,2.5C551.8,65.7,556.6,63.3,559,62.5z
	 M549.2,81.8c-2.2,0.8-4.1,0.8-5.7,0c-2.7-1.3-4.1-4.5-4.7-6.2C541.2,75.3,546.6,75.4,549.2,81.8z"/>
<linearGradient id="SVGID_6_" gradientUnits="userSpaceOnUse" x1="374.6324" y1="74.7828" x2="426.441" y2="74.7828">
	<stop  offset="0" style="stop-color:#1C95A6"/>
	<stop  offset="7.079148e-02" style="stop-color:#27989B"/>
	<stop  offset="0.354" style="stop-color:#4DA273"/>
	<stop  offset="0.613" style="stop-color:#69AA56"/>
	<stop  offset="0.8368" style="stop-color:#7AAE44"/>
	<stop  offset="1" style="stop-color:#80B03E"/>
</linearGradient>
<path class="st6" d="M424.1,45.6c-0.2-0.5-0.6-0.8-1.1-0.8c-0.5,0-1,0.2-1.2,0.7c0,0-2.5,4.8-12.4,10.6c-5.5,3.2-8.5,8.2-8.1,13.3
	c0.3,3.3,2,6,4.6,7.4c-1.3,3.3-2.4,6.7-3.2,10.2c-1-2.5-2.5-4.8-4.4-6.7c0.1-0.6,0.2-1.3,0.1-2c-0.3-2.9-1.9-9.7-11.1-9.9
	c-6.6-0.2-10.8-2.6-10.9-2.6c-0.4-0.2-0.9-0.2-1.3,0c-0.4,0.3-0.6,0.7-0.6,1.2c0.1,0.7,1.6,16.4,13.2,18.3c0.9,0.1,1.7,0.2,2.5,0.2
	c1.8,0,3.4-0.4,4.8-1.1c0,0,0,0,0,0c0.8-0.4,1.5-1,2.1-1.7c2.6,2.9,4.3,6.8,4.3,10.9c0,0,0,0,0,0c-0.4,3.3-0.7,6.6-0.7,9.9
	c0,0.7,0.6,1.2,1.2,1.2s1.2-0.6,1.2-1.2c0-9,1.7-17.8,4.9-26c1,0.3,2.5,0.6,4.2,0.6c3.7,0,8.4-1.5,11.8-8
	C429.2,60.5,424.3,46.2,424.1,45.6z M394.1,82.2c-1.6,0.8-3.5,1-5.8,0.6c-7.3-1.2-9.9-9.7-10.8-13.9c2.1,0.8,5.5,1.8,9.8,1.9
	c6.4,0.2,8.3,4,8.7,7.4c-2.3-1.7-5.1-2.8-8-3.2c-0.7-0.1-1.3,0.4-1.4,1.1c-0.1,0.7,0.4,1.3,1.1,1.4c3,0.4,5.6,1.7,7.9,3.5
	C395.1,81.5,394.7,81.9,394.1,82.2z M422,69.1c-3.9,7.7-10.1,7-12.8,6.2c2.2-4.9,4.9-9.7,8.2-14.1c0.4-0.6,0.3-1.3-0.3-1.7
	s-1.3-0.3-1.7,0.3c-3.4,4.6-6.3,9.5-8.5,14.6c-1.7-1-2.9-2.9-3.1-5.3c-0.4-4.1,2.2-8.2,6.8-10.9c6.5-3.8,10-7.2,11.8-9.4
	C423.6,53.2,425.4,62.6,422,69.1z"/>
<linearGradient id="SVGID_7_" gradientUnits="userSpaceOnUse" x1="236.9059" y1="65.8625" x2="290.0508" y2="65.8625">
	<stop  offset="0" style="stop-color:#1C95A6"/>
	<stop  offset="7.079148e-02" style="stop-color:#27989B"/>
	<stop  offset="0.354" style="stop-color:#4DA273"/>
	<stop  offset="0.613" style="stop-color:#69AA56"/>
	<stop  offset="0.8368" style="stop-color:#7AAE44"/>
	<stop  offset="1" style="stop-color:#80B03E"/>
</linearGradient>
<path class="st7" d="M289.5,53.2c-4-5.4-8.5-8.5-13.6-9.1c-0.6-0.1-1.2-0.1-1.9-0.1c-5,0-8.9,2.3-10.6,3.5
	c-1.7-1.2-5.6-3.5-10.6-3.5c-0.6,0-1.2,0-1.9,0.1c-5.1,0.6-9.7,3.7-13.6,9.1l-0.5,0.7l0.1,0.2c0.1,0.2,1.4,5.6,5.3,10.9
	c2,2.8,4.3,5,6.9,6.7v1.6c0,7.9,6.4,14.4,14.4,14.4c7.9,0,14.4-6.4,14.4-14.4v-1.6c2.5-1.7,4.8-3.9,6.8-6.7c3.6-5,5.1-10.1,5.3-10.8
	l0.1-0.2L289.5,53.2z M249.1,68.6c-1.7-1.4-3.3-3.1-4.8-5c-1.6-2.1-2.7-4.3-3.4-6c2.3,1.2,5.2,2.1,8.2,2.7V68.6z M275.7,70v3v0.3
	c0,6.7-5.5,12.2-12.2,12.2s-12.2-5.5-12.2-12.2v-0.3v-2.9v-9.5c4.5,0.8,8.9,1,11.2,1v14.9h2.1V61.7c2.3,0,6.6-0.3,11.2-1V70z
	 M277.8,68.5v-8.2c2.9-0.6,5.8-1.5,8.1-2.7C284.6,60.6,282,65.1,277.8,68.5z M264.4,59.1c-0.2,0-0.4,0-0.6,0H263c-0.2,0-0.4,0-0.6,0
	c-5.3,0-18.2-1.3-22.4-5.2c3.4-4.3,7.1-6.7,11.2-7.2c0.5-0.1,1-0.1,1.5-0.1c4.4,0,7.9,2.2,9.3,3.1c0.3,0.2,0.6,0.4,0.8,0.7l0.5,0.6
	l0.5-0.6c0.2-0.3,0.5-0.5,0.8-0.7c1.3-0.9,4.8-3.1,9.2-3.1c0.5,0,1,0,1.5,0.1c4.1,0.5,7.8,2.9,11.2,7.2
	C282.6,57.8,269.8,59.1,264.4,59.1z"/>
<linearGradient id="SVGID_8_" gradientUnits="userSpaceOnUse" x1="257.5334" y1="80.9726" x2="260.8031" y2="80.9726">
	<stop  offset="0" style="stop-color:#1C95A6"/>
	<stop  offset="7.079148e-02" style="stop-color:#27989B"/>
	<stop  offset="0.354" style="stop-color:#4DA273"/>
	<stop  offset="0.613" style="stop-color:#69AA56"/>
	<stop  offset="0.8368" style="stop-color:#7AAE44"/>
	<stop  offset="1" style="stop-color:#80B03E"/>
</linearGradient>
<circle class="st8" cx="259.2" cy="81" r="1.6"/>
<linearGradient id="SVGID_9_" gradientUnits="userSpaceOnUse" x1="269.9682" y1="91.9212" x2="273.2379" y2="91.9212">
	<stop  offset="0" style="stop-color:#1C95A6"/>
	<stop  offset="7.079148e-02" style="stop-color:#27989B"/>
	<stop  offset="0.354" style="stop-color:#4DA273"/>
	<stop  offset="0.613" style="stop-color:#69AA56"/>
	<stop  offset="0.8368" style="stop-color:#7AAE44"/>
	<stop  offset="1" style="stop-color:#80B03E"/>
</linearGradient>
<circle class="st9" cx="271.6" cy="91.9" r="1.6"/>
<linearGradient id="SVGID_10_" gradientUnits="userSpaceOnUse" x1="254.2141" y1="91.723" x2="257.4838" y2="91.723">
	<stop  offset="0" style="stop-color:#1C95A6"/>
	<stop  offset="7.079148e-02" style="stop-color:#27989B"/>
	<stop  offset="0.354" style="stop-color:#4DA273"/>
	<stop  offset="0.613" style="stop-color:#69AA56"/>
	<stop  offset="0.8368" style="stop-color:#7AAE44"/>
	<stop  offset="1" style="stop-color:#80B03E"/>
</linearGradient>
<circle class="st10" cx="255.8" cy="91.7" r="1.6"/>
<linearGradient id="SVGID_11_" gradientUnits="userSpaceOnUse" x1="267.4911" y1="100.0459" x2="270.7609" y2="100.0459">
	<stop  offset="0" style="stop-color:#1C95A6"/>
	<stop  offset="7.079148e-02" style="stop-color:#27989B"/>
	<stop  offset="0.354" style="stop-color:#4DA273"/>
	<stop  offset="0.613" style="stop-color:#69AA56"/>
	<stop  offset="0.8368" style="stop-color:#7AAE44"/>
	<stop  offset="1" style="stop-color:#80B03E"/>
</linearGradient>
<circle class="st11" cx="269.1" cy="100" r="1.6"/>
<linearGradient id="SVGID_12_" gradientUnits="userSpaceOnUse" x1="262.438" y1="94.4973" x2="265.7077" y2="94.4973">
	<stop  offset="0" style="stop-color:#1C95A6"/>
	<stop  offset="7.079148e-02" style="stop-color:#27989B"/>
	<stop  offset="0.354" style="stop-color:#4DA273"/>
	<stop  offset="0.613" style="stop-color:#69AA56"/>
	<stop  offset="0.8368" style="stop-color:#7AAE44"/>
	<stop  offset="1" style="stop-color:#80B03E"/>
</linearGradient>
<circle class="st12" cx="264.1" cy="94.5" r="1.6"/>
</svg>
